<mxfile host="Electron" modified="2024-04-28T22:34:11.972Z" agent="Mozilla/5.0 (X11; Linux x86_64) AppleWebKit/537.36 (KHTML, like Gecko) draw.io/24.2.5 Chrome/120.0.6099.109 Electron/28.1.0 Safari/537.36" etag="RZmXHXJzEv9_g5-XnbP7" version="24.2.5" type="device">
  <diagram name="Page-1" id="UZ1dh6AJimU_O-AMQnKm">
    <mxGraphModel dx="1434" dy="835" grid="1" gridSize="10" guides="1" tooltips="1" connect="1" arrows="1" fold="1" page="1" pageScale="1" pageWidth="850" pageHeight="1100" math="0" shadow="0">
      <root>
        <mxCell id="0" />
        <mxCell id="1" parent="0" />
        <mxCell id="f5fq9e3-4T86RQ9Ig68q-1" value="0" style="rounded=0;whiteSpace=wrap;html=1;shadow=0;strokeColor=#6c8ebf;strokeWidth=1;fontFamily=Ubuntu;fontSize=16;fontStyle=0;fillColor=#dae8fc;" vertex="1" parent="1">
          <mxGeometry x="200" y="280" width="40" height="40" as="geometry" />
        </mxCell>
        <mxCell id="f5fq9e3-4T86RQ9Ig68q-2" value="1" style="rounded=0;whiteSpace=wrap;html=1;shadow=0;strokeColor=#6c8ebf;strokeWidth=1;fontFamily=Ubuntu;fontSize=16;fontStyle=0;fillColor=#dae8fc;" vertex="1" parent="1">
          <mxGeometry x="240" y="280" width="40" height="40" as="geometry" />
        </mxCell>
        <mxCell id="f5fq9e3-4T86RQ9Ig68q-3" value="1" style="rounded=0;whiteSpace=wrap;html=1;shadow=0;strokeColor=#6c8ebf;strokeWidth=1;fontFamily=Ubuntu;fontSize=16;fontStyle=0;fillColor=#dae8fc;" vertex="1" parent="1">
          <mxGeometry x="280" y="280" width="40" height="40" as="geometry" />
        </mxCell>
        <mxCell id="f5fq9e3-4T86RQ9Ig68q-4" value="0" style="rounded=0;whiteSpace=wrap;html=1;shadow=0;strokeColor=#6c8ebf;strokeWidth=1;fontFamily=Ubuntu;fontSize=16;fontStyle=0;fillColor=#dae8fc;" vertex="1" parent="1">
          <mxGeometry x="320" y="280" width="40" height="40" as="geometry" />
        </mxCell>
        <mxCell id="f5fq9e3-4T86RQ9Ig68q-5" value="1" style="rounded=0;whiteSpace=wrap;html=1;shadow=0;strokeColor=#6c8ebf;strokeWidth=1;fontFamily=Ubuntu;fontSize=16;fontStyle=0;fillColor=#dae8fc;" vertex="1" parent="1">
          <mxGeometry x="360" y="280" width="40" height="40" as="geometry" />
        </mxCell>
        <mxCell id="f5fq9e3-4T86RQ9Ig68q-6" value="1" style="rounded=0;whiteSpace=wrap;html=1;shadow=0;strokeColor=#6c8ebf;strokeWidth=1;fontFamily=Ubuntu;fontSize=16;fontStyle=0;fillColor=#dae8fc;" vertex="1" parent="1">
          <mxGeometry x="400" y="280" width="40" height="40" as="geometry" />
        </mxCell>
        <mxCell id="f5fq9e3-4T86RQ9Ig68q-7" value="1" style="rounded=0;whiteSpace=wrap;html=1;shadow=0;strokeColor=#6c8ebf;strokeWidth=1;fontFamily=Ubuntu;fontSize=16;fontStyle=0;fillColor=#dae8fc;" vertex="1" parent="1">
          <mxGeometry x="440" y="280" width="40" height="40" as="geometry" />
        </mxCell>
        <mxCell id="f5fq9e3-4T86RQ9Ig68q-8" value="0" style="rounded=0;whiteSpace=wrap;html=1;shadow=0;strokeColor=#6c8ebf;strokeWidth=1;fontFamily=Ubuntu;fontSize=16;fontStyle=0;fillColor=#dae8fc;" vertex="1" parent="1">
          <mxGeometry x="480" y="280" width="40" height="40" as="geometry" />
        </mxCell>
        <mxCell id="f5fq9e3-4T86RQ9Ig68q-9" value="1" style="rounded=0;whiteSpace=wrap;html=1;shadow=0;strokeColor=#6c8ebf;strokeWidth=1;fontFamily=Ubuntu;fontSize=16;fontStyle=0;fillColor=#dae8fc;" vertex="1" parent="1">
          <mxGeometry x="520" y="280" width="40" height="40" as="geometry" />
        </mxCell>
        <mxCell id="f5fq9e3-4T86RQ9Ig68q-10" value="1" style="rounded=0;whiteSpace=wrap;html=1;shadow=0;strokeColor=#82b366;strokeWidth=1;fontFamily=Ubuntu;fontSize=16;fontStyle=0;fillColor=#d5e8d4;" vertex="1" parent="1">
          <mxGeometry x="240" y="360" width="40" height="40" as="geometry" />
        </mxCell>
        <mxCell id="f5fq9e3-4T86RQ9Ig68q-11" value="1" style="rounded=0;whiteSpace=wrap;html=1;shadow=0;strokeColor=#82b366;strokeWidth=1;fontFamily=Ubuntu;fontSize=16;fontStyle=0;fillColor=#d5e8d4;" vertex="1" parent="1">
          <mxGeometry x="280" y="360" width="40" height="40" as="geometry" />
        </mxCell>
        <mxCell id="f5fq9e3-4T86RQ9Ig68q-12" value="1" style="rounded=0;whiteSpace=wrap;html=1;shadow=0;strokeColor=#82b366;strokeWidth=1;fontFamily=Ubuntu;fontSize=16;fontStyle=0;fillColor=#d5e8d4;" vertex="1" parent="1">
          <mxGeometry x="360" y="400" width="40" height="40" as="geometry" />
        </mxCell>
        <mxCell id="f5fq9e3-4T86RQ9Ig68q-13" value="1" style="rounded=0;whiteSpace=wrap;html=1;shadow=0;strokeColor=#82b366;strokeWidth=1;fontFamily=Ubuntu;fontSize=16;fontStyle=0;fillColor=#d5e8d4;" vertex="1" parent="1">
          <mxGeometry x="400" y="400" width="40" height="40" as="geometry" />
        </mxCell>
        <mxCell id="f5fq9e3-4T86RQ9Ig68q-14" value="1" style="rounded=0;whiteSpace=wrap;html=1;shadow=0;strokeColor=#82b366;strokeWidth=1;fontFamily=Ubuntu;fontSize=16;fontStyle=0;fillColor=#d5e8d4;" vertex="1" parent="1">
          <mxGeometry x="440" y="400" width="40" height="40" as="geometry" />
        </mxCell>
        <mxCell id="f5fq9e3-4T86RQ9Ig68q-15" value="1" style="rounded=0;whiteSpace=wrap;html=1;shadow=0;strokeColor=#82b366;strokeWidth=1;fontFamily=Ubuntu;fontSize=16;fontStyle=0;fillColor=#d5e8d4;" vertex="1" parent="1">
          <mxGeometry x="520" y="440" width="40" height="40" as="geometry" />
        </mxCell>
      </root>
    </mxGraphModel>
  </diagram>
</mxfile>
